<svg width="315" height="183" viewBox="0 0 315 183" fill="none" xmlns="http://www.w3.org/2000/svg">
<path d="M6.40181 91.4047C5.9525 86.5156 7.82778 81.4936 11.8737 78.0987L93.0744 9.96322C99.6321 4.46069 109.409 5.31604 114.911 11.8737C120.414 18.4314 119.558 28.2081 113.001 33.7106L62.6022 76H299.5C308.06 76 315 82.9396 315 91.5C315 100.06 308.06 107 299.5 107H62.8295L113.001 149.099C119.558 154.601 120.414 164.378 114.911 170.936C109.409 177.493 99.6321 178.349 93.0744 172.846L11.8737 104.711C7.82777 101.316 5.95249 96.2938 6.40181 91.4047Z" fill="#548195"/>
</svg>
