<svg width="300" height="300" viewBox="0 0 300 300" fill="none" xmlns="http://www.w3.org/2000/svg">
<path fill-rule="evenodd" clip-rule="evenodd" d="M120.792 165.732L120.575 189.551L146.002 184.093L241.888 73.6283C244.487 67.2266 242.286 61.1394 236.878 56.9438C231.309 52.6237 223.474 51.3979 216.39 55.5981L120.792 165.732ZM207.779 45.6865L107.836 160.826L107.427 205.668L152.974 195.893L252.917 80.7535C266.358 54.0714 233 28.2415 207.779 45.6865ZM159.691 44.2898C164.033 44.2898 167.553 47.62 167.553 51.7281C167.553 55.8361 164.033 59.1664 159.691 59.1664H103.53C79.3372 59.1664 59.725 77.7205 59.725 100.608V203.682C59.725 226.569 79.3372 245.123 103.53 245.123H193.387C217.58 245.123 237.192 226.569 237.192 203.682V132.487C237.192 128.379 240.712 125.048 245.055 125.048C249.397 125.048 252.917 128.379 252.917 132.487V203.682C252.917 234.785 226.265 260 193.387 260H103.53C70.6526 260 44 234.785 44 203.682V100.608C44 69.5044 70.6526 44.2898 103.53 44.2898H159.691Z" fill="#548195"/>
</svg>
