<svg width="315" height="183" viewBox="0 0 315 183" fill="none" xmlns="http://www.w3.org/2000/svg">
<path d="M308.598 91.4046C309.048 96.2937 307.172 101.316 303.126 104.711L221.926 172.846C215.368 178.349 205.591 177.493 200.089 170.936C194.586 164.378 195.442 154.601 201.999 149.099L252.398 106.809H15.5C6.93958 106.809 0 99.8697 0 91.3093C0 82.7489 6.93958 75.8093 15.5 75.8093H252.17L201.999 33.7106C195.442 28.2081 194.586 18.4314 200.089 11.8737C205.591 5.31605 215.368 4.46069 221.926 9.96322L303.126 78.0987C307.172 81.4936 309.047 86.5155 308.598 91.4046Z" fill="#548195"/>
</svg>
