<svg width="193" height="225" viewBox="0 0 193 225" fill="none" xmlns="http://www.w3.org/2000/svg">
<path fill-rule="evenodd" clip-rule="evenodd" d="M164.846 110.297C145.247 135.633 108.819 140.285 83.482 120.685C58.1453 101.086 53.4941 64.6581 73.0934 39.3214C92.6927 13.9847 129.121 9.33358 154.457 28.9329C179.794 48.5322 184.445 84.96 164.846 110.297ZM80.2816 137.898C112.072 157.446 154.149 150.275 177.501 120.086C202.507 87.7603 196.573 41.2834 164.247 16.2774C131.921 -8.72862 85.4439 -2.79445 60.4379 29.5317C37.0858 59.7199 40.7165 102.249 67.6261 128.108L0.672241 214.662L13.3277 224.451L80.2816 137.898Z" fill="black"/>
</svg>
