<svg width="300" height="300" viewBox="0 0 300 300" fill="none" xmlns="http://www.w3.org/2000/svg">
<path fill-rule="evenodd" clip-rule="evenodd" d="M224.897 92.8045H76.8955C75.0322 92.8045 73.6197 94.4852 73.9402 96.3206L96.5907 226.017C97.8446 233.197 104.078 238.436 111.367 238.436H190.426C197.714 238.436 203.948 233.197 205.202 226.017L227.852 96.3206C228.173 94.4852 226.76 92.8045 224.897 92.8045ZM76.8955 76.8045C65.095 76.8045 56.1486 87.4486 58.1788 99.0732L80.8292 228.769C83.4207 243.608 96.3038 254.436 111.367 254.436H190.426C205.489 254.436 218.372 243.608 220.963 228.769L243.614 99.0733C245.644 87.4487 236.698 76.8045 224.897 76.8045H76.8955Z" fill="#548195"/>
<path d="M185.251 119.753C185.488 116.277 188.498 113.656 191.973 113.898C195.449 114.141 198.074 117.156 197.837 120.632L191.78 209.391C191.542 212.867 188.533 215.489 185.057 215.246C181.581 215.003 178.956 211.988 179.193 208.512L185.251 119.753Z" fill="#548195"/>
<path d="M103.952 121.572C103.714 118.096 106.339 115.081 109.815 114.838C113.291 114.595 116.301 117.216 116.538 120.692L122.599 209.452C122.837 212.928 120.211 215.943 116.736 216.186C113.26 216.428 110.25 213.808 110.013 210.332L103.952 121.572Z" fill="#548195"/>
<path d="M144.394 120.707C144.394 117.223 147.218 114.399 150.702 114.399C154.186 114.399 157.01 117.223 157.01 120.707V209.679C157.01 213.163 154.186 215.987 150.702 215.987C147.218 215.987 144.394 213.163 144.394 209.679V120.707Z" fill="#548195"/>
<path d="M140.864 22.1234C137.338 22.8167 135.03 26.2389 135.708 29.7671L138.571 44.6678C138.578 44.7054 138.586 44.7429 138.593 44.7802L63.5869 59.5317C59.1839 60.3977 56.3009 64.672 57.1475 69.0787C57.9941 73.4854 62.2498 76.3558 66.6527 75.4899L230.003 43.3639C234.406 42.498 237.289 38.2236 236.442 33.8169C235.596 29.4102 231.34 26.5398 226.937 27.4057L151.357 42.27C151.351 42.2324 151.344 42.1948 151.337 42.1572L148.474 27.2564C147.796 23.7282 144.389 21.4301 140.864 22.1234Z" fill="#548195"/>
</svg>
